<svg width="1920" height="2177" viewBox="0 0 1920 2177" fill="none" xmlns="http://www.w3.org/2000/svg">
<rect width="1920" height="1264.79" transform="translate(0 984.211)" fill="#274562"/>
<path d="M583.424 224.433C388.742 102.894 113.357 95.5277 0 107.037V781.198H1920V-0.000183105C1385.24 35.6789 1141.89 122.229 1054.53 182.999C945.335 258.961 826.778 376.356 583.424 224.433Z" fill="#0C1620"/>
<path d="M583.424 293.565C388.742 172.026 113.357 164.66 0 176.169V850.33H1920V69.1321C1385.24 104.811 1141.89 191.362 1054.53 252.131C945.335 328.093 826.778 445.488 583.424 293.565Z" fill="#D3D3D3"/>
<path d="M583.424 293.565C388.742 172.026 113.357 164.66 0 176.169V850.33H1920V69.1321C1385.24 104.811 1141.89 191.362 1054.53 252.131C945.335 328.093 826.778 445.488 583.424 293.565Z" fill="#101C28"/>
<path d="M583.424 366.155C388.742 244.616 113.357 237.25 0 248.759V922.92H1920V141.722C1385.24 177.401 1141.89 263.952 1054.53 324.721C945.335 400.683 826.778 518.078 583.424 366.155Z" fill="#CBCBCB"/>
<path d="M583.424 366.155C388.742 244.616 113.357 237.25 0 248.759V922.92H1920V141.722C1385.24 177.401 1141.89 263.952 1054.53 324.721C945.335 400.683 826.778 518.078 583.424 366.155Z" fill="#192F44"/>
<path d="M583.424 431.831C388.742 310.292 113.357 302.926 0 314.435V988.596H1920V207.398C1385.24 243.077 1141.89 329.627 1054.53 390.397C945.335 466.359 826.778 583.754 583.424 431.831Z" fill="#CBCBCB"/>
<path d="M583.424 431.831C388.742 310.292 113.357 302.926 0 314.435V988.596H1920V207.398C1385.24 243.077 1141.89 329.627 1054.53 390.397C945.335 466.359 826.778 583.754 583.424 431.831Z" fill="#274562"/>
</svg>
