<svg id="visual" viewBox="0 0 960 540" width="960" height="540" xmlns="http://www.w3.org/2000/svg" xmlns:xlink="http://www.w3.org/1999/xlink" preserveAspectRatio="none" version="1.1"><path d="M0 141L22.8 145.5C45.7 150 91.3 159 137 152.8C182.7 146.7 228.3 125.3 274 120.8C319.7 116.3 365.3 128.7 411.2 133.2C457 137.7 503 134.3 548.8 129.8C594.7 125.3 640.3 119.7 686 116.8C731.7 114 777.3 114 823 115C868.7 116 914.3 118 937.2 119L960 120L960 0L937.2 0C914.3 0 868.7 0 823 0C777.3 0 731.7 0 686 0C640.3 0 594.7 0 548.8 0C503 0 457 0 411.2 0C365.3 0 319.7 0 274 0C228.3 0 182.7 0 137 0C91.3 0 45.7 0 22.8 0L0 0Z" fill="#274562"></path><path d="M0 179L22.8 182.7C45.7 186.3 91.3 193.7 137 185.7C182.7 177.7 228.3 154.3 274 149.8C319.7 145.3 365.3 159.7 411.2 165C457 170.3 503 166.7 548.8 164C594.7 161.3 640.3 159.7 686 157C731.7 154.3 777.3 150.7 823 148.8C868.7 147 914.3 147 937.2 147L960 147L960 118L937.2 117C914.3 116 868.7 114 823 113C777.3 112 731.7 112 686 114.8C640.3 117.7 594.7 123.3 548.8 127.8C503 132.3 457 135.7 411.2 131.2C365.3 126.7 319.7 114.3 274 118.8C228.3 123.3 182.7 144.7 137 150.8C91.3 157 45.7 148 22.8 143.5L0 139Z" fill="#223d55"></path><path d="M0 206L22.8 212.3C45.7 218.7 91.3 231.3 137 226.8C182.7 222.3 228.3 200.7 274 197C319.7 193.3 365.3 207.7 411.2 210.3C457 213 503 204 548.8 198.7C594.7 193.3 640.3 191.7 686 190.8C731.7 190 777.3 190 823 190.8C868.7 191.7 914.3 193.3 937.2 194.2L960 195L960 145L937.2 145C914.3 145 868.7 145 823 146.8C777.3 148.7 731.7 152.3 686 155C640.3 157.7 594.7 159.3 548.8 162C503 164.7 457 168.3 411.2 163C365.3 157.7 319.7 143.3 274 147.8C228.3 152.3 182.7 175.7 137 183.7C91.3 191.7 45.7 184.3 22.8 180.7L0 177Z" fill="#1e3448"></path><path d="M0 244L22.8 253C45.7 262 91.3 280 137 280C182.7 280 228.3 262 274 256.7C319.7 251.3 365.3 258.7 411.2 258.7C457 258.7 503 251.3 548.8 247.7C594.7 244 640.3 244 686 243.2C731.7 242.3 777.3 240.7 823 238.8C868.7 237 914.3 235 937.2 234L960 233L960 193L937.2 192.2C914.3 191.3 868.7 189.7 823 188.8C777.3 188 731.7 188 686 188.8C640.3 189.7 594.7 191.3 548.8 196.7C503 202 457 211 411.2 208.3C365.3 205.7 319.7 191.3 274 195C228.3 198.7 182.7 220.3 137 224.8C91.3 229.3 45.7 216.7 22.8 210.3L0 204Z" fill="#1a2c3c"></path><path d="M0 314L22.8 318.5C45.7 323 91.3 332 137 332C182.7 332 228.3 323 274 321.2C319.7 319.3 365.3 324.7 411.2 321.2C457 317.7 503 305.3 548.8 303.7C594.7 302 640.3 311 686 314.5C731.7 318 777.3 316 823 313.2C868.7 310.3 914.3 306.7 937.2 304.8L960 303L960 231L937.2 232C914.3 233 868.7 235 823 236.8C777.3 238.7 731.7 240.3 686 241.2C640.3 242 594.7 242 548.8 245.7C503 249.3 457 256.7 411.2 256.7C365.3 256.7 319.7 249.3 274 254.7C228.3 260 182.7 278 137 278C91.3 278 45.7 260 22.8 251L0 242Z" fill="#162430"></path><path d="M0 384L22.8 388.5C45.7 393 91.3 402 137 402C182.7 402 228.3 393 274 387.7C319.7 382.3 365.3 380.7 411.2 379.8C457 379 503 379 548.8 382.7C594.7 386.3 640.3 393.7 686 391C731.7 388.3 777.3 375.7 823 375.7C868.7 375.7 914.3 388.3 937.2 394.7L960 401L960 301L937.2 302.8C914.3 304.7 868.7 308.3 823 311.2C777.3 314 731.7 316 686 312.5C640.3 309 594.7 300 548.8 301.7C503 303.3 457 315.7 411.2 319.2C365.3 322.7 319.7 317.3 274 319.2C228.3 321 182.7 330 137 330C91.3 330 45.7 321 22.8 316.5L0 312Z" fill="#131c25"></path><path d="M0 433L22.8 436.7C45.7 440.3 91.3 447.7 137 444C182.7 440.3 228.3 425.7 274 421.2C319.7 416.7 365.3 422.3 411.2 421.5C457 420.7 503 413.3 548.8 413.3C594.7 413.3 640.3 420.7 686 419.8C731.7 419 777.3 410 823 410.8C868.7 411.7 914.3 422.3 937.2 427.7L960 433L960 399L937.2 392.7C914.3 386.3 868.7 373.7 823 373.7C777.3 373.7 731.7 386.3 686 389C640.3 391.7 594.7 384.3 548.8 380.7C503 377 457 377 411.2 377.8C365.3 378.7 319.7 380.3 274 385.7C228.3 391 182.7 400 137 400C91.3 400 45.7 391 22.8 386.5L0 382Z" fill="#0e141a"></path><path d="M0 541L22.8 541C45.7 541 91.3 541 137 541C182.7 541 228.3 541 274 541C319.7 541 365.3 541 411.2 541C457 541 503 541 548.8 541C594.7 541 640.3 541 686 541C731.7 541 777.3 541 823 541C868.7 541 914.3 541 937.2 541L960 541L960 431L937.2 425.7C914.3 420.3 868.7 409.7 823 408.8C777.3 408 731.7 417 686 417.8C640.3 418.7 594.7 411.3 548.8 411.3C503 411.3 457 418.7 411.2 419.5C365.3 420.3 319.7 414.7 274 419.2C228.3 423.7 182.7 438.3 137 442C91.3 445.7 45.7 438.3 22.8 434.7L0 431Z" fill="#05090d"></path></svg>