<svg width="1920" height="366" viewBox="0 0 1920 366" fill="none" xmlns="http://www.w3.org/2000/svg">
<path d="M583.424 241.138C388.742 308.756 113.357 312.854 0 306.45V-68.6154H1920V366C1385.24 346.15 1141.89 297.998 1054.53 264.189C945.335 221.928 826.778 156.616 583.424 241.138Z" fill="#0C1620"/>
<path d="M583.424 202.676C388.742 270.294 113.357 274.392 0 267.989V-107.077H1920V327.538C1385.24 307.689 1141.89 259.537 1054.53 225.728C945.335 183.467 826.778 118.155 583.424 202.676Z" fill="#D3D3D3"/>
<path d="M583.424 202.676C388.742 270.294 113.357 274.392 0 267.989V-107.077H1920V327.538C1385.24 307.689 1141.89 259.537 1054.53 225.728C945.335 183.467 826.778 118.155 583.424 202.676Z" fill="#101C28"/>
<path d="M583.424 162.292C388.742 229.909 113.357 234.007 0 227.604V-147.462H1920V287.154C1385.24 267.304 1141.89 219.152 1054.53 185.343C945.335 143.082 826.778 77.7698 583.424 162.292Z" fill="#CBCBCB"/>
<path d="M583.424 162.292C388.742 229.909 113.357 234.007 0 227.604V-147.462H1920V287.154C1385.24 267.304 1141.89 219.152 1054.53 185.343C945.335 143.082 826.778 77.7698 583.424 162.292Z" fill="#1A2F44"/>
<path d="M583.424 125.753C388.742 193.371 113.357 197.469 0 191.066V-184H1920V250.615C1385.24 230.766 1141.89 182.614 1054.53 148.805C945.335 106.544 826.778 41.2315 583.424 125.753Z" fill="#CBCBCB"/>
<path d="M583.424 125.753C388.742 193.371 113.357 197.469 0 191.066V-184H1920V250.615C1385.24 230.766 1141.89 182.614 1054.53 148.805C945.335 106.544 826.778 41.2315 583.424 125.753Z" fill="#274562"/>
</svg>
