<svg id="visual" viewBox="0 0 900 600" width="900" height="600" xmlns="http://www.w3.org/2000/svg" xmlns:xlink="http://www.w3.org/1999/xlink" version="1.1"><rect x="0" y="0" width="900" height="600" fill="#002233"></rect><path d="M0 480L21.5 482.3C43 484.7 86 489.3 128.8 481.8C171.7 474.3 214.3 454.7 257.2 458C300 461.3 343 487.7 385.8 494C428.7 500.3 471.3 486.7 514.2 482C557 477.3 600 481.7 642.8 471.2C685.7 460.7 728.3 435.3 771.2 428.7C814 422 857 434 878.5 440L900 446L900 601L878.5 601C857 601 814 601 771.2 601C728.3 601 685.7 601 642.8 601C600 601 557 601 514.2 601C471.3 601 428.7 601 385.8 601C343 601 300 601 257.2 601C214.3 601 171.7 601 128.8 601C86 601 43 601 21.5 601L0 601Z" fill="#0066FF" stroke-linecap="round" stroke-linejoin="miter"></path></svg>